<svg width="35" height="46" viewBox="0 0 35 46" fill="none" xmlns="http://www.w3.org/2000/svg">
<path d="M2.05116 23.4957C1.43817 23.4957 1.0587 23.2112 0.912748 22.6423C0.562468 21.5642 0.314353 20.3589 0.168404 19.0263C0.0224538 17.6937 -0.0286286 16.3461 0.0151563 14.9836C0.0589413 13.6211 0.263271 12.296 0.628146 11.0083C0.99302 9.72063 1.51114 8.6875 2.18251 7.90891C1.97818 7.07042 1.87602 6.20948 1.87602 5.32608C1.87602 4.44268 1.97818 3.56676 2.18251 2.69833C2.38684 1.8299 2.67874 1.1112 3.05821 0.542233C3.29173 0.152938 3.64201 -0.0267373 4.10905 0.00320848C4.86799 0.0331543 5.59044 0.130478 6.2764 0.29518C6.96237 0.459882 7.61185 0.691963 8.22484 0.991421C8.83782 1.29088 9.34865 1.56039 9.75731 1.79996C10.166 2.03952 10.6622 2.36893 11.246 2.78817C13.7855 2.09942 16.5148 1.84488 19.4338 2.02455C19.93 2.0545 20.6306 2.17428 21.5355 2.3839C22.382 2.56358 22.922 2.64593 23.1555 2.63095C23.389 2.61598 23.8561 2.35396 24.5566 1.84488C25.1696 1.42564 25.6512 1.14115 26.0015 0.991421C27.3151 0.392504 28.76 0.0631001 30.3362 0.00320848C30.6865 0.00320848 30.9784 0.115505 31.2119 0.340099C31.4455 0.564693 31.5695 0.849178 31.5841 1.19356C31.5987 1.53793 31.4965 1.8299 31.2776 2.06947C31.0587 2.30904 30.7741 2.44379 30.4238 2.47374C29.1394 2.50369 27.9864 2.75822 26.9648 3.23736C26.7313 3.3272 26.381 3.53682 25.914 3.86622C24.8631 4.61487 24.0166 5.01913 23.3744 5.07903C22.849 5.13892 22.0609 5.03411 21.01 4.7646C20.1927 4.58492 19.6235 4.48011 19.3024 4.45016C16.4418 4.30043 13.7855 4.58492 11.3336 5.30362C10.9833 5.39346 10.6622 5.33357 10.3703 5.12394L10.0638 4.89935C9.33405 4.42022 8.77944 4.06087 8.39997 3.8213C8.02051 3.58173 7.48779 3.3272 6.80182 3.05768C6.11586 2.78817 5.4226 2.6085 4.72204 2.51866C4.43014 3.23736 4.27689 4.11327 4.2623 5.1464C4.2477 6.17954 4.37176 7.05545 4.63447 7.77415C4.86799 8.31318 4.76582 8.77734 4.32797 9.16663C3.27714 10.065 2.64955 11.8992 2.44522 14.6692C2.24089 17.4392 2.48901 19.8423 3.18957 21.8786C3.27714 22.1781 3.24795 22.485 3.102 22.7995C2.95605 23.1139 2.72253 23.316 2.40144 23.4059C2.28468 23.4658 2.16792 23.4957 2.05116 23.4957ZM11.1584 35.6238L10.8957 35.5788C10.5746 35.519 10.3192 35.3468 10.1295 35.0623C9.93975 34.7778 9.88866 34.4559 9.97623 34.0965L10.0638 33.7821C10.4725 31.8955 10.8373 30.518 11.1584 29.6496C8.70647 29.1405 6.60479 28.2945 4.85339 27.1117C3.102 25.9288 1.80304 24.4989 0.956533 22.8219C0.810583 22.5225 0.788691 22.208 0.890855 21.8786C0.99302 21.5492 1.19005 21.3097 1.48195 21.1599C1.77385 21.0102 2.08035 20.9877 2.40144 21.0926C2.72253 21.1974 2.95605 21.3995 3.102 21.699C3.86093 23.2262 5.1161 24.4914 6.8675 25.4946C8.6189 26.4978 10.7498 27.179 13.2601 27.5384C13.7855 27.6282 14.1212 27.9277 14.2672 28.4368C14.3839 28.9758 14.238 29.41 13.8293 29.7394C13.4498 30.0988 12.9682 31.611 12.3844 34.2762L12.2968 34.6356C12.2385 34.935 12.0998 35.1746 11.8809 35.3543C11.662 35.5339 11.4211 35.6238 11.1584 35.6238ZM8.9254 44.6075C8.86701 44.6075 8.79404 44.5925 8.70647 44.5626C8.38538 44.5027 8.12997 44.338 7.94023 44.0685C7.7505 43.799 7.68482 43.4995 7.7432 43.1701C7.88915 42.3915 8.38538 41.7477 9.23189 41.2386C9.4946 41.0889 9.64055 40.9691 9.66974 40.8793C9.87407 40.46 9.93245 39.3371 9.84488 37.5104C9.7865 36.8216 9.75731 36.2976 9.75731 35.9382C8.79404 36.0879 7.86726 36.1853 6.97696 36.2302C6.08667 36.2751 5.22557 36.1104 4.39365 35.7361C3.56174 35.3617 2.89767 34.7404 2.40144 33.8719C2.19711 33.5425 1.95629 33.026 1.67898 32.3222C1.40168 31.6185 1.17546 31.1469 1.00032 30.9073C0.795988 30.6378 0.708418 30.3383 0.737608 30.0089C0.766798 29.6795 0.912748 29.4025 1.17546 29.1779C1.43817 28.9533 1.73007 28.8635 2.05116 28.9084C2.37225 28.9533 2.63496 29.0956 2.83929 29.3351C3.21876 29.7843 3.58363 30.4881 3.93391 31.4463C3.99229 31.626 4.04337 31.7682 4.08716 31.8731C4.13094 31.9779 4.18202 32.1051 4.2404 32.2549C4.29878 32.4046 4.35716 32.5244 4.41554 32.6142C4.8242 33.303 5.53936 33.6848 6.56101 33.7596C7.58266 33.8345 8.98377 33.6623 10.7644 33.2431C11.1438 33.1532 11.4868 33.2506 11.7933 33.535C12.0998 33.8195 12.2239 34.1714 12.1655 34.5906C12.1363 35.0698 12.1509 35.9981 12.2093 37.3756C12.2968 39.6215 12.1655 41.1338 11.8152 41.9124C11.5525 42.4814 11.0855 42.9605 10.4141 43.3498C10.2098 43.4995 10.093 43.5744 10.0638 43.5744C10.0346 43.8738 9.91056 44.1209 9.69163 44.3155C9.47271 44.5102 9.21729 44.6075 8.9254 44.6075ZM26.3518 44.3829C25.914 44.3829 25.5783 44.1883 25.3448 43.799C25.2864 43.7091 25.1258 43.5744 24.8631 43.3947C24.2501 42.9455 23.8123 42.4664 23.5496 41.9573C23.2285 41.2985 23.046 40.4376 23.0023 39.3745C22.9585 38.3114 22.9804 37.2708 23.0679 36.2526C23.1555 34.4259 23.1555 33.1383 23.0679 32.3896C22.9804 31.7907 22.6885 31.1618 22.1922 30.503C21.7836 29.9341 21.4917 29.4849 21.3165 29.1555C21.1414 28.7662 21.1706 28.3769 21.4041 27.9876C21.6084 27.6282 21.9149 27.4336 22.3236 27.4036C24.5712 27.224 26.5488 26.6176 28.2565 25.5844C29.9641 24.5513 31.2411 23.1663 32.0876 21.4294C32.2336 21.13 32.4598 20.9279 32.7663 20.823C33.0728 20.7182 33.3793 20.7407 33.6858 20.8904C33.9923 21.0402 34.1966 21.2797 34.2988 21.6091C34.4009 21.9385 34.379 22.253 34.2331 22.5524C33.3282 24.3791 32.0366 25.8989 30.3581 27.1117C28.6797 28.3245 26.7313 29.1555 24.5128 29.6047C25.0091 30.3533 25.3156 31.1768 25.4323 32.0752C25.5491 32.9736 25.5637 34.411 25.4761 36.3874C25.3593 38.7831 25.4323 40.2654 25.695 40.8343C25.7534 40.9242 25.8118 41.0065 25.8702 41.0814C25.9286 41.1563 26.0453 41.2536 26.2204 41.3734C26.7167 41.7028 27.0961 42.0621 27.3589 42.4514C27.534 42.7509 27.5851 43.0653 27.5121 43.3947C27.4391 43.7241 27.2713 43.9787 27.0086 44.1583C26.8918 44.2182 26.7824 44.2706 26.6802 44.3155C26.578 44.3605 26.4686 44.3829 26.3518 44.3829ZM33.1385 23.2262C33.0509 23.2262 32.9487 23.2112 32.832 23.1813C32.5109 23.0914 32.2701 22.8968 32.1095 22.5973C31.949 22.2979 31.9125 21.9834 32.0001 21.654C32.6714 19.2883 32.8101 16.7878 32.416 14.1526C32.022 11.5174 31.2557 9.69068 30.1173 8.67253C29.7087 8.31318 29.5919 7.86399 29.767 7.32496C30.0006 6.45653 30.0662 5.50575 29.9641 4.47262C29.8619 3.43949 29.6357 2.51866 29.2854 1.71012C29.1686 1.41066 29.1686 1.10372 29.2854 0.789286C29.4022 0.474855 29.6138 0.250262 29.9203 0.115505C30.2268 -0.0192509 30.5333 -0.0267374 30.8398 0.093046C31.1463 0.212829 31.3579 0.42245 31.4746 0.721908C31.8833 1.65023 32.1606 2.69085 32.3066 3.84376C32.4525 4.99668 32.4233 6.17205 32.219 7.36988C33.1531 8.41799 33.8536 9.82544 34.3207 11.5922C34.7877 13.359 35.0139 15.1857 34.9993 17.0723C34.9847 18.9589 34.7585 20.7107 34.3207 22.3278C34.1163 22.8968 33.7223 23.1963 33.1385 23.2262ZM22.4112 46C22.1776 46 21.9587 45.9401 21.7544 45.8203C21.1706 45.431 20.47 44.5925 19.6527 43.3049C19.0981 42.4364 18.704 38.0943 18.4705 30.2784C18.4413 30.0389 18.4778 29.8218 18.58 29.6271C18.6821 29.4325 18.8281 29.2827 19.0178 29.1779C19.2076 29.0731 19.4046 29.0057 19.6089 28.9758C19.93 28.9758 20.2146 29.0956 20.4627 29.3351C20.7108 29.5747 20.8349 29.8592 20.8349 30.1886C21.0392 37.0163 21.3311 40.9691 21.7106 42.0471C22.3528 43.0653 22.7906 43.6343 23.0241 43.7541C23.316 43.9337 23.4985 44.1883 23.5715 44.5177C23.6444 44.8471 23.5788 45.1615 23.3744 45.461C23.1701 45.8203 22.849 46 22.4112 46ZM13.3039 46C12.866 46 12.5304 45.8203 12.2968 45.461C12.1217 45.1615 12.0706 44.8471 12.1436 44.5177C12.2166 44.1883 12.3844 43.9337 12.6471 43.7541C12.9098 43.6343 13.3623 43.0653 14.0044 42.0471C14.3547 41.029 14.632 37.0761 14.8364 30.1886C14.8656 29.8592 14.9969 29.5747 15.2304 29.3351C15.4639 29.0956 15.7486 28.9833 16.0842 28.9983C16.4199 29.0132 16.6972 29.1405 16.9161 29.3801C17.1351 29.6196 17.2445 29.9191 17.2445 30.2784C17.011 38.0943 16.617 42.4364 16.0623 43.3049C15.245 44.5925 14.5445 45.431 13.9607 45.8203C13.7563 45.9401 13.5374 46 13.3039 46Z" fill="black"/>
</svg>
