<svg width="42" height="43" viewBox="0 0 42 43" fill="none" xmlns="http://www.w3.org/2000/svg">
<path d="M21 0C9.4017 0 0 9.62555 0 21.5C0 33.3745 9.4017 43 21 43C32.5983 43 42 33.3745 42 21.5C42 9.62555 32.5983 0 21 0ZM21 3.11535C25.5748 3.11535 29.7507 4.8676 32.9217 7.75075C30.5917 10.8973 27.0522 12.9925 23.5053 14.4104C21.4974 10.6665 19.2472 7.06439 16.7696 3.62813C18.1552 3.28617 19.5757 3.11403 21.001 3.11535H21ZM13.3602 4.85685C15.7017 8.44305 17.9697 11.768 20.0413 15.5316C14.8018 16.9216 8.8809 17.7558 3.41145 17.7698C4.56435 12.0422 8.3223 7.28635 13.3602 4.85793V4.85685ZM34.9135 9.8771C37.5084 13.1236 38.9358 17.1837 38.9571 21.3785C34.8033 20.54 30.6726 20.3207 26.4663 20.755C25.9938 19.5478 25.4205 18.4008 24.8713 17.1645C28.497 15.667 32.3736 13.1043 34.9135 9.87603V9.8771ZM21.4998 18.3761C21.9492 19.3543 22.47 20.3928 22.9593 21.4538C17.1108 24.094 10.8895 27.6221 7.6608 33.8077C4.56121 30.2959 2.90934 25.6923 3.0513 20.9614C9.31455 20.9313 15.4623 20.1294 21.4998 18.3761ZM30.9897 23.3888C33.6029 23.3893 36.2054 23.7326 38.7334 24.41C38.3437 26.9 37.4576 29.2812 36.1305 31.4056C34.8034 33.53 33.0635 35.3521 31.0191 36.7586C30.0552 32.2704 29.1364 27.9758 27.5121 23.6457C28.6634 23.474 29.8252 23.3877 30.9886 23.3877L30.9897 23.3888ZM38.8269 23.722C38.8143 23.8274 38.8027 23.9306 38.7881 24.0338C38.8027 23.9295 38.8153 23.8263 38.8269 23.722ZM24.1899 24.4853C25.8447 28.8638 27.1435 33.712 28.015 38.4302C25.7966 39.3939 23.4109 39.889 21.001 39.8857C17.0088 39.8916 13.1295 38.5292 9.9813 36.0157C13.2331 30.6149 18.27 26.5278 24.1889 24.4864L24.1899 24.4853Z" fill="#EA4C89"/>
</svg>
